<svg xmlns="http://www.w3.org/2000/svg" width="1600" height="900" viewBox="0 0 1600 900">
<defs>
  <filter id="paperNoise" x="-5%" y="-5%" width="110%" height="110%">
    <feTurbulence type="fractalNoise" baseFrequency="0.028" numOctaves="4" seed="8" result="noise"/>
    <feColorMatrix type="matrix" values="0.12 0 0 0 0.88  0 0.10 0 0 0.82  0 0 0.08 0 0.68  0 0 0 0.20 0" />
  </filter>
  <filter id="roughen" x="-3%" y="-3%" width="106%" height="106%">
    <feTurbulence type="fractalNoise" baseFrequency="0.018" numOctaves="2" seed="3" result="noise"/>
    <feDisplacementMap in="SourceGraphic" in2="noise" scale="1.1" xChannelSelector="R" yChannelSelector="G"/>
  </filter>
  <style>
    .rough { filter: url(#roughen); }
    text { paint-order: stroke; stroke: rgba(247,240,223,0.28); stroke-width: 1px; stroke-linejoin: round; }
  </style>
</defs>
<rect width="100%" height="100%" fill="#F7F0DF"/>
<rect width="100%" height="100%" filter="url(#paperNoise)" opacity="0.35"/>
<text x="800.0" y="76.0" font-family="'Kaiti SC','STKaiti','Xingkai SC','Comic Sans MS',sans-serif" font-size="54" font-weight="600" fill="#111111" text-anchor="middle" dominant-baseline="middle"><tspan x="800.0" dy="0.0">SE-Bench AI Infra 复现架构</tspan></text><rect class="rough" x="58.0" y="152.0" width="505.0" height="472.0" rx="34.0" fill="#DCECF7" stroke="#8BB7D8" stroke-width="3" /><rect class="rough" x="199.4" y="124.0" width="170.0" height="60.0" rx="12.0" fill="#F7F0DF" stroke="#8BB7D8" stroke-width="3" /><text x="284.4" y="155.0" font-family="'Kaiti SC','STKaiti','Xingkai SC','Comic Sans MS',sans-serif" font-size="38" font-weight="500" fill="#111111" text-anchor="middle" dominant-baseline="middle"><tspan x="284.4" dy="0.0">公开输入</tspan></text><rect class="rough" x="98.0" y="259.5" width="170.0" height="300.0" rx="4.0" fill="#D8D7CF" stroke="#111111" stroke-width="3" /><rect class="rough" x="118.0" y="289.5" width="130.0" height="42.5" rx="2.0" fill="#ECEBE4" stroke="#111111" stroke-width="2" /><circle cx="228.0" cy="310.8" r="4.5" fill="#62B35C"/><circle cx="243.0" cy="310.8" r="4.5" fill="#62B35C"/><rect class="rough" x="118.0" y="344.5" width="130.0" height="42.5" rx="2.0" fill="#ECEBE4" stroke="#111111" stroke-width="2" /><circle cx="228.0" cy="365.8" r="4.5" fill="#62B35C"/><circle cx="243.0" cy="365.8" r="4.5" fill="#62B35C"/><rect class="rough" x="118.0" y="399.5" width="130.0" height="42.5" rx="2.0" fill="#ECEBE4" stroke="#111111" stroke-width="2" /><circle cx="228.0" cy="420.8" r="4.5" fill="#62B35C"/><circle cx="243.0" cy="420.8" r="4.5" fill="#62B35C"/><rect class="rough" x="118.0" y="454.5" width="130.0" height="42.5" rx="2.0" fill="#ECEBE4" stroke="#111111" stroke-width="2" /><circle cx="228.0" cy="475.8" r="4.5" fill="#62B35C"/><circle cx="243.0" cy="475.8" r="4.5" fill="#62B35C"/><rect class="rough" x="118.0" y="509.5" width="130.0" height="42.5" rx="2.0" fill="#ECEBE4" stroke="#111111" stroke-width="2" /><circle cx="228.0" cy="530.8" r="4.5" fill="#62B35C"/><circle cx="243.0" cy="530.8" r="4.5" fill="#62B35C"/><path class="rough" d="M 302.5 252.6 C 297.0 239.6, 315.6 234.6, 319.3 239.6 C 324.2 225.9, 340.4 235.8, 335.4 247.0 C 349.7 247.0, 349.7 260.0, 337.9 260.0 L 308.1 260.0 C 305.0 259.4, 303.2 256.9, 302.5 252.6" fill="#FFFFFF" stroke="#111111" stroke-width="2.5" stroke-linecap="round" stroke-linejoin="round" /><text x="323.0" y="251.3" font-family="'Kaiti SC','STKaiti','Xingkai SC','Comic Sans MS',sans-serif" font-size="14" font-weight="500" fill="#111111" text-anchor="middle" dominant-baseline="middle"><tspan x="323.0" dy="0.0">API</tspan></text><text x="393.0" y="247.0" font-family="'Kaiti SC','STKaiti','Xingkai SC','Comic Sans MS',sans-serif" font-size="34" font-weight="500" fill="#111111" text-anchor="start" dominant-baseline="middle"><tspan x="393.0" dy="0.0">公开论文</tspan></text><line class="rough" x1="287.3" y1="287.1" x2="508.6" y2="286.8" stroke="#8BB7D8" stroke-width="2" stroke-linecap="round" /><rect class="rough" x="311.2" y="318.2" width="10.6" height="10.6" rx="0.0" fill="#CBE5CE" stroke="#111111" stroke-width="2" /><rect class="rough" x="323.0" y="318.2" width="10.6" height="10.6" rx="0.0" fill="#CBE5CE" stroke="#111111" stroke-width="2" /><rect class="rough" x="311.2" y="330.0" width="10.6" height="10.6" rx="0.0" fill="#CBE5CE" stroke="#111111" stroke-width="2" /><rect class="rough" x="323.0" y="330.0" width="10.6" height="10.6" rx="0.0" fill="#CBE5CE" stroke="#111111" stroke-width="2" /><text x="393.0" y="330.0" font-family="'Kaiti SC','STKaiti','Xingkai SC','Comic Sans MS',sans-serif" font-size="34" font-weight="500" fill="#111111" text-anchor="start" dominant-baseline="middle"><tspan x="393.0" dy="0.0">开源基准</tspan></text><line class="rough" x1="288.1" y1="371.0" x2="506.2" y2="371.5" stroke="#8BB7D8" stroke-width="2" stroke-linecap="round" /><rect class="rough" x="305.3" y="395.3" width="10.6" height="10.6" rx="0.0" fill="#CBE5CE" stroke="#111111" stroke-width="2" /><rect class="rough" x="317.1" y="395.3" width="10.6" height="10.6" rx="0.0" fill="#CBE5CE" stroke="#111111" stroke-width="2" /><rect class="rough" x="328.9" y="395.3" width="10.6" height="10.6" rx="0.0" fill="#CBE5CE" stroke="#111111" stroke-width="2" /><rect class="rough" x="305.3" y="407.1" width="10.6" height="10.6" rx="0.0" fill="#CBE5CE" stroke="#111111" stroke-width="2" /><rect class="rough" x="317.1" y="407.1" width="10.6" height="10.6" rx="0.0" fill="#CBE5CE" stroke="#111111" stroke-width="2" /><rect class="rough" x="328.9" y="407.1" width="10.6" height="10.6" rx="0.0" fill="#CBE5CE" stroke="#111111" stroke-width="2" /><rect class="rough" x="305.3" y="418.9" width="10.6" height="10.6" rx="0.0" fill="#CBE5CE" stroke="#111111" stroke-width="2" /><rect class="rough" x="317.1" y="418.9" width="10.6" height="10.6" rx="0.0" fill="#CBE5CE" stroke="#111111" stroke-width="2" /><rect class="rough" x="328.9" y="418.9" width="10.6" height="10.6" rx="0.0" fill="#CBE5CE" stroke="#111111" stroke-width="2" /><text x="393.0" y="413.0" font-family="'Kaiti SC','STKaiti','Xingkai SC','Comic Sans MS',sans-serif" font-size="34" font-weight="500" fill="#111111" text-anchor="start" dominant-baseline="middle"><tspan x="393.0" dy="0.0">合成数据</tspan></text><line class="rough" x1="286.1" y1="454.2" x2="506.3" y2="452.9" stroke="#8BB7D8" stroke-width="2" stroke-linecap="round" /><rect class="rough" x="305.6" y="478.6" width="34.7" height="34.7" rx="8.0" fill="#EFEFE7" stroke="#111111" stroke-width="3" /><text x="323.0" y="497.0" font-family="'Kaiti SC','STKaiti','Xingkai SC','Comic Sans MS',sans-serif" font-size="14" font-weight="500" fill="#111111" text-anchor="middle" dominant-baseline="middle"><tspan x="323.0" dy="0.0">GPU</tspan></text><line class="rough" x1="300.4" y1="483.0" x2="304.1" y2="480.6" stroke="#111111" stroke-width="2" stroke-linecap="round" /><line class="rough" x1="340.9" y1="483.5" x2="345.6" y2="481.3" stroke="#111111" stroke-width="2" stroke-linecap="round" /><line class="rough" x1="310.6" y1="471.9" x2="310.2" y2="477.8" stroke="#111111" stroke-width="2" stroke-linecap="round" /><line class="rough" x1="307.3" y1="511.8" x2="308.0" y2="519.6" stroke="#111111" stroke-width="2" stroke-linecap="round" /><line class="rough" x1="299.4" y1="489.2" x2="306.2" y2="488.4" stroke="#111111" stroke-width="2" stroke-linecap="round" /><line class="rough" x1="340.6" y1="487.1" x2="343.6" y2="487.7" stroke="#111111" stroke-width="2" stroke-linecap="round" /><line class="rough" x1="316.6" y1="473.4" x2="315.1" y2="479.0" stroke="#111111" stroke-width="2" stroke-linecap="round" /><line class="rough" x1="315.7" y1="512.6" x2="317.0" y2="519.1" stroke="#111111" stroke-width="2" stroke-linecap="round" /><line class="rough" x1="299.7" y1="496.3" x2="305.7" y2="497.5" stroke="#111111" stroke-width="2" stroke-linecap="round" /><line class="rough" x1="341.3" y1="495.2" x2="347.2" y2="494.5" stroke="#111111" stroke-width="2" stroke-linecap="round" /><line class="rough" x1="322.7" y1="474.7" x2="321.6" y2="478.6" stroke="#111111" stroke-width="2" stroke-linecap="round" /><line class="rough" x1="321.2" y1="514.0" x2="324.1" y2="518.6" stroke="#111111" stroke-width="2" stroke-linecap="round" /><line class="rough" x1="302.2" y1="502.4" x2="306.4" y2="503.5" stroke="#111111" stroke-width="2" stroke-linecap="round" /><line class="rough" x1="340.7" y1="503.0" x2="346.7" y2="504.9" stroke="#111111" stroke-width="2" stroke-linecap="round" /><line class="rough" x1="330.0" y1="474.3" x2="328.4" y2="479.4" stroke="#111111" stroke-width="2" stroke-linecap="round" /><line class="rough" x1="330.7" y1="515.3" x2="331.4" y2="517.5" stroke="#111111" stroke-width="2" stroke-linecap="round" /><line class="rough" x1="300.2" y1="510.9" x2="303.7" y2="510.1" stroke="#111111" stroke-width="2" stroke-linecap="round" /><line class="rough" x1="339.0" y1="508.7" x2="343.6" y2="511.3" stroke="#111111" stroke-width="2" stroke-linecap="round" /><line class="rough" x1="335.8" y1="472.7" x2="336.8" y2="480.1" stroke="#111111" stroke-width="2" stroke-linecap="round" /><line class="rough" x1="335.6" y1="513.2" x2="337.5" y2="519.9" stroke="#111111" stroke-width="2" stroke-linecap="round" /><text x="393.0" y="496.0" font-family="'Kaiti SC','STKaiti','Xingkai SC','Comic Sans MS',sans-serif" font-size="34" font-weight="500" fill="#111111" text-anchor="start" dominant-baseline="middle"><tspan x="393.0" dy="0.0">开放模型</tspan></text><line class="rough" x1="716.3" y1="224.5" x2="725.6" y2="222.7" stroke="#111111" stroke-width="4" stroke-linecap="round" /><line class="rough" x1="708.0" y1="240.1" x2="718.5" y2="245.2" stroke="#111111" stroke-width="4" stroke-linecap="round" /><line class="rough" x1="691.7" y1="243.9" x2="691.9" y2="256.4" stroke="#111111" stroke-width="4" stroke-linecap="round" /><line class="rough" x1="677.8" y1="237.6" x2="667.4" y2="246.3" stroke="#111111" stroke-width="4" stroke-linecap="round" /><line class="rough" x1="670.5" y1="223.3" x2="661.4" y2="223.8" stroke="#111111" stroke-width="4" stroke-linecap="round" /><line class="rough" x1="677.5" y1="207.9" x2="670.1" y2="197.6" stroke="#111111" stroke-width="4" stroke-linecap="round" /><line class="rough" x1="694.6" y1="202.1" x2="694.5" y2="190.8" stroke="#111111" stroke-width="4" stroke-linecap="round" /><line class="rough" x1="708.1" y1="207.0" x2="715.1" y2="199.9" stroke="#111111" stroke-width="4" stroke-linecap="round" /><circle class="rough" cx="693.0" cy="223.0" r="26.4" fill="#FFFFFF" stroke="#111111" stroke-width="3"/><circle cx="693.0" cy="223.0" r="10.6" fill="#F7F0DF" stroke="#111111" stroke-width="3"/><text x="693.0" y="297.0" font-family="'Kaiti SC','STKaiti','Xingkai SC','Comic Sans MS',sans-serif" font-size="32" font-weight="500" fill="#111111" text-anchor="middle" dominant-baseline="middle"><tspan x="693.0" dy="0.0">题目生成</tspan></text><path class="rough" d="M 883.0 191.3 C 898.8 201.0, 910.3 201.9, 914.7 202.8 C 912.0 240.6, 891.8 256.4, 883.0 260.8 C 874.2 256.4, 854.0 240.6, 851.3 202.8 C 865.4 201.9, 871.6 199.2, 883.0 191.3 Z" fill="#FFFFFF" stroke="#111111" stroke-width="3" stroke-linecap="round" stroke-linejoin="round" /><path class="rough" d="M 868.9 223.0 L 880.4 234.4 L 900.6 210.7" fill="none" stroke="#111111" stroke-width="4" stroke-linecap="round" stroke-linejoin="round" /><text x="883.0" y="297.0" font-family="'Kaiti SC','STKaiti','Xingkai SC','Comic Sans MS',sans-serif" font-size="32" font-weight="500" fill="#111111" text-anchor="middle" dominant-baseline="middle"><tspan x="883.0" dy="0.0">隔离评测</tspan></text><line class="rough" x1="661.3" y1="565.9" x2="722.6" y2="566.3" stroke="#111111" stroke-width="3" stroke-linecap="round" /><line class="rough" x1="662.4" y1="565.9" x2="661.1" y2="517.0" stroke="#111111" stroke-width="3" stroke-linecap="round" /><path class="rough" d="M 671.0 550.0 C 682.4 523.6, 693.0 560.6, 705.3 536.0 S 722.0 541.2, 726.4 527.2" fill="none" stroke="#111111" stroke-width="3" stroke-linecap="round" stroke-linejoin="round" /><text x="693.0" y="617.0" font-family="'Kaiti SC','STKaiti','Xingkai SC','Comic Sans MS',sans-serif" font-size="32" font-weight="500" fill="#111111" text-anchor="middle" dominant-baseline="middle"><tspan x="693.0" dy="0.0">回归信号</tspan></text><path class="rough" d="M 883.0 509.6 L 909.4 524.5 L 883.0 540.4 L 856.6 524.5 Z" fill="#FFFFFF" stroke="#111111" stroke-width="2.5" stroke-linecap="round" stroke-linejoin="round" /><path class="rough" d="M 883.0 521.0 L 909.4 536.0 L 883.0 551.8 L 856.6 536.0 Z" fill="#FFFFFF" stroke="#111111" stroke-width="2.5" stroke-linecap="round" stroke-linejoin="round" /><path class="rough" d="M 883.0 532.4 L 909.4 547.4 L 883.0 563.2 L 856.6 547.4 Z" fill="#FFFFFF" stroke="#111111" stroke-width="2.5" stroke-linecap="round" stroke-linejoin="round" /><text x="883.0" y="617.0" font-family="'Kaiti SC','STKaiti','Xingkai SC','Comic Sans MS',sans-serif" font-size="32" font-weight="500" fill="#111111" text-anchor="middle" dominant-baseline="middle"><tspan x="883.0" dy="0.0">几何桥接</tspan></text><path class="rough" d="M 593.0 366.2 L 857.7 366.2 L 857.7 335.6 L 988.0 390.0 L 857.7 444.4 L 857.7 413.8 L 593.0 413.8 Z" fill="rgba(233,90,36,0.03)" stroke="#E95A24" stroke-width="5" stroke-linecap="round" stroke-linejoin="round" /><path class="" d="M 593.0 366.2 L 857.7 366.2 L 857.7 335.6 L 988.0 390.0 L 857.7 444.4 L 857.7 413.8 L 593.0 413.8" fill="none" stroke="#E95A24" stroke-width="2.5" stroke-linecap="round" stroke-linejoin="round" /><text x="758.9" y="393.4" font-family="'Kaiti SC','STKaiti','Xingkai SC','Comic Sans MS',sans-serif" font-size="46" font-weight="600" fill="#E95A24" text-anchor="middle" dominant-baseline="middle"><tspan x="758.9" dy="0.0">工程化复现</tspan></text><rect class="rough" x="1035.0" y="152.0" width="505.0" height="472.0" rx="34.0" fill="#DDF0E4" stroke="#87BFA1" stroke-width="3" /><rect class="rough" x="1176.4" y="124.0" width="170.0" height="60.0" rx="12.0" fill="#F7F0DF" stroke="#87BFA1" stroke-width="3" /><text x="1261.4" y="155.0" font-family="'Kaiti SC','STKaiti','Xingkai SC','Comic Sans MS',sans-serif" font-size="38" font-weight="500" fill="#111111" text-anchor="middle" dominant-baseline="middle"><tspan x="1261.4" dy="0.0">平台输出</tspan></text><path class="rough" d="M 1087.2 340.8 C 1068.0 268.8, 1140.0 235.2, 1156.8 254.4 C 1176.0 168.0, 1267.2 204.0, 1260.0 268.8 C 1332.0 259.2, 1339.2 350.4, 1286.4 362.4 L 1108.8 362.4 C 1099.2 360.0, 1092.0 352.8, 1087.2 340.8" fill="#EEF8F8" stroke="#111111" stroke-width="3.5" stroke-linecap="round" stroke-linejoin="round" /><rect class="rough" x="1168.8" y="300.0" width="62.4" height="52.8" rx="2.0" fill="#FFFFFF" stroke="#111111" stroke-width="2" /><circle cx="1185.0" cy="466.0" r="18.0" fill="#FFFFFF" stroke="#111111" stroke-width="3"/><line class="rough" x1="1183.4" y1="486.5" x2="1183.1" y2="536.5" stroke="#111111" stroke-width="3" stroke-linecap="round" /><line class="rough" x1="1185.5" y1="500.6" x2="1157.0" y2="519.4" stroke="#111111" stroke-width="3" stroke-linecap="round" /><line class="rough" x1="1184.5" y1="500.5" x2="1219.4" y2="489.0" stroke="#111111" stroke-width="3" stroke-linecap="round" /><line class="rough" x1="1184.9" y1="534.9" x2="1160.8" y2="564.9" stroke="#111111" stroke-width="3" stroke-linecap="round" /><line class="rough" x1="1184.4" y1="534.1" x2="1210.3" y2="565.1" stroke="#111111" stroke-width="3" stroke-linecap="round" /><path class="rough" d="M 1264.5 252.6 C 1259.0 239.6, 1277.6 234.6, 1281.3 239.6 C 1286.2 225.9, 1302.4 235.8, 1297.4 247.0 C 1311.7 247.0, 1311.7 260.0, 1299.9 260.0 L 1270.1 260.0 C 1267.0 259.4, 1265.2 256.9, 1264.5 252.6" fill="#FFFFFF" stroke="#111111" stroke-width="2.5" stroke-linecap="round" stroke-linejoin="round" /><text x="1285.0" y="251.3" font-family="'Kaiti SC','STKaiti','Xingkai SC','Comic Sans MS',sans-serif" font-size="14" font-weight="500" fill="#111111" text-anchor="middle" dominant-baseline="middle"><tspan x="1285.0" dy="0.0">API</tspan></text><text x="1355.0" y="247.0" font-family="'Kaiti SC','STKaiti','Xingkai SC','Comic Sans MS',sans-serif" font-size="34" font-weight="500" fill="#111111" text-anchor="start" dominant-baseline="middle"><tspan x="1355.0" dy="0.0">FastAPI</tspan></text><line class="rough" x1="1248.1" y1="290.3" x2="1485.1" y2="287.1" stroke="#87BFA1" stroke-width="2" stroke-linecap="round" /><path class="" d="M 1263.3 343.6 C 1280.0 318.8, 1291.2 346.1, 1306.7 317.6" fill="none" stroke="#111111" stroke-width="3" stroke-linecap="round" stroke-linejoin="round" /><text x="1260.2" y="347.4" font-family="'Kaiti SC','STKaiti','Xingkai SC','Comic Sans MS',sans-serif" font-size="17" font-weight="500" fill="#111111" text-anchor="middle" dominant-baseline="middle"><tspan x="1260.2" dy="0.0">×</tspan></text><text x="1308.6" y="315.1" font-family="'Kaiti SC','STKaiti','Xingkai SC','Comic Sans MS',sans-serif" font-size="17" font-weight="500" fill="#111111" text-anchor="middle" dominant-baseline="middle"><tspan x="1308.6" dy="0.0">×</tspan></text><text x="1355.0" y="330.0" font-family="'Kaiti SC','STKaiti','Xingkai SC','Comic Sans MS',sans-serif" font-size="34" font-weight="500" fill="#111111" text-anchor="start" dominant-baseline="middle"><tspan x="1355.0" dy="0.0">CLI流水线</tspan></text><line class="rough" x1="1250.2" y1="369.6" x2="1485.1" y2="373.4" stroke="#87BFA1" stroke-width="2" stroke-linecap="round" /><line class="rough" x1="1265.4" y1="431.1" x2="1305.7" y2="429.8" stroke="#111111" stroke-width="3" stroke-linecap="round" /><line class="rough" x1="1262.6" y1="431.4" x2="1264.1" y2="396.8" stroke="#111111" stroke-width="3" stroke-linecap="round" /><path class="rough" d="M 1269.5 418.0 C 1277.6 399.4, 1285.0 425.4, 1293.7 408.0 S 1305.5 411.8, 1308.6 401.8" fill="none" stroke="#111111" stroke-width="3" stroke-linecap="round" stroke-linejoin="round" /><text x="1355.0" y="413.0" font-family="'Kaiti SC','STKaiti','Xingkai SC','Comic Sans MS',sans-serif" font-size="34" font-weight="500" fill="#111111" text-anchor="start" dominant-baseline="middle"><tspan x="1355.0" dy="0.0">评测报告</tspan></text><line class="rough" x1="1249.3" y1="453.4" x2="1486.2" y2="456.4" stroke="#87BFA1" stroke-width="2" stroke-linecap="round" /><rect class="rough" x="1263.9" y="485.5" width="9.8" height="9.8" rx="0.0" fill="#A8B8D7" stroke="#111111" stroke-width="2" /><rect class="rough" x="1274.5" y="485.5" width="9.8" height="9.8" rx="0.0" fill="#F4E4A7" stroke="#111111" stroke-width="2" /><rect class="rough" x="1285.0" y="485.5" width="9.8" height="9.8" rx="0.0" fill="#D8C4EB" stroke="#111111" stroke-width="2" /><rect class="rough" x="1295.5" y="485.5" width="9.8" height="9.8" rx="0.0" fill="#FFFFFF" stroke="#111111" stroke-width="2" /><rect class="rough" x="1263.9" y="496.0" width="9.8" height="9.8" rx="0.0" fill="#A8B8D7" stroke="#111111" stroke-width="2" /><rect class="rough" x="1274.5" y="496.0" width="9.8" height="9.8" rx="0.0" fill="#FFFFFF" stroke="#111111" stroke-width="2" /><rect class="rough" x="1285.0" y="496.0" width="9.8" height="9.8" rx="0.0" fill="#A8B8D7" stroke="#111111" stroke-width="2" /><rect class="rough" x="1295.5" y="496.0" width="9.8" height="9.8" rx="0.0" fill="#D8C4EB" stroke="#111111" stroke-width="2" /><text x="1355.0" y="496.0" font-family="'Kaiti SC','STKaiti','Xingkai SC','Comic Sans MS',sans-serif" font-size="34" font-weight="500" fill="#111111" text-anchor="start" dominant-baseline="middle"><tspan x="1355.0" dy="0.0">LoRA预留</tspan></text><line class="rough" x1="71.4" y1="681.2" x2="651.3" y2="681.0" stroke="#111111" stroke-width="2.5" stroke-linecap="round" /><line class="rough" x1="948.9" y1="680.1" x2="1529.4" y2="678.1" stroke="#111111" stroke-width="2.5" stroke-linecap="round" /><text x="800.0" y="688.0" font-family="'Kaiti SC','STKaiti','Xingkai SC','Comic Sans MS',sans-serif" font-size="42" font-weight="600" fill="#111111" text-anchor="middle" dominant-baseline="middle"><tspan x="800.0" dy="0.0">复现边界</tspan></text><rect class="rough" x="70.0" y="713.0" width="341.0" height="144.0" rx="10.0" fill="#DCECF7" stroke="#DCECF7" stroke-width="3" /><path class="rough" d="M 240.5 736.5 C 255.3 745.5, 265.9 746.3, 270.0 747.1 C 267.6 782.4, 248.7 797.2, 240.5 801.3 C 232.3 797.2, 213.4 782.4, 211.0 747.1 C 224.1 746.3, 229.8 743.9, 240.5 736.5 Z" fill="#FFFFFF" stroke="#111111" stroke-width="3" stroke-linecap="round" stroke-linejoin="round" /><path class="rough" d="M 227.4 766.0 L 238.0 776.7 L 256.9 754.5" fill="none" stroke="#111111" stroke-width="4" stroke-linecap="round" stroke-linejoin="round" /><text x="240.5" y="836.0" font-family="'Kaiti SC','STKaiti','Xingkai SC','Comic Sans MS',sans-serif" font-size="31" font-weight="500" fill="#111111" text-anchor="middle" dominant-baseline="middle"><tspan x="240.5" dy="0.0">无内部代码</tspan></text><rect class="rough" x="443.0" y="713.0" width="341.0" height="144.0" rx="10.0" fill="#DDF0E4" stroke="#DDF0E4" stroke-width="3" /><line class="rough" x1="611.6" y1="740.5" x2="612.5" y2="789.7" stroke="#111111" stroke-width="3" stroke-linecap="round" /><line class="rough" x1="588.3" y1="754.3" x2="642.3" y2="756.5" stroke="#111111" stroke-width="3" stroke-linecap="round" /><line class="rough" x1="595.6" y1="754.0" x2="586.1" y2="771.5" stroke="#111111" stroke-width="2" stroke-linecap="round" /><line class="rough" x1="592.6" y1="753.3" x2="600.9" y2="774.2" stroke="#111111" stroke-width="2" stroke-linecap="round" /><line class="rough" x1="634.5" y1="754.4" x2="627.2" y2="773.8" stroke="#111111" stroke-width="2" stroke-linecap="round" /><line class="rough" x1="631.5" y1="755.2" x2="641.4" y2="773.7" stroke="#111111" stroke-width="2" stroke-linecap="round" /><path class="rough" d="M 582.3 772.6 Q 593.8 780.8 605.3 772.6" fill="#CDE4F1" stroke="#111111" stroke-width="2" stroke-linecap="round" stroke-linejoin="round" /><path class="rough" d="M 621.7 772.6 Q 633.2 780.8 644.7 772.6" fill="#DDF0E4" stroke="#111111" stroke-width="2" stroke-linecap="round" stroke-linejoin="round" /><text x="613.5" y="836.0" font-family="'Kaiti SC','STKaiti','Xingkai SC','Comic Sans MS',sans-serif" font-size="31" font-weight="500" fill="#111111" text-anchor="middle" dominant-baseline="middle"><tspan x="613.5" dy="0.0">引用公开来源</tspan></text><rect class="rough" x="816.0" y="713.0" width="341.0" height="144.0" rx="10.0" fill="#F8E9A8" stroke="#F8E9A8" stroke-width="3" /><ellipse cx="986.5" cy="766.0" rx="11.5" ry="18.0" fill="#E99A74" stroke="#111111" stroke-width="3"/><circle cx="986.5" cy="747.1" r="8.2" fill="#E99A74" stroke="#111111" stroke-width="3"/><line class="rough" x1="979.3" y1="757.7" x2="962.3" y2="755.7" stroke="#111111" stroke-width="2.3" stroke-linecap="round" /><line class="rough" x1="977.6" y1="770.5" x2="965.4" y2="765.6" stroke="#111111" stroke-width="2.3" stroke-linecap="round" /><line class="rough" x1="977.9" y1="782.5" x2="964.4" y2="776.2" stroke="#111111" stroke-width="2.3" stroke-linecap="round" /><line class="rough" x1="993.2" y1="756.4" x2="1011.1" y2="755.7" stroke="#111111" stroke-width="2.3" stroke-linecap="round" /><line class="rough" x1="993.3" y1="770.6" x2="1011.4" y2="766.6" stroke="#111111" stroke-width="2.3" stroke-linecap="round" /><line class="rough" x1="994.1" y1="781.0" x2="1008.0" y2="775.5" stroke="#111111" stroke-width="2.3" stroke-linecap="round" /><line class="rough" x1="982.6" y1="740.4" x2="973.5" y2="732.5" stroke="#111111" stroke-width="2" stroke-linecap="round" /><line class="rough" x1="992.0" y1="741.2" x2="1000.9" y2="729.6" stroke="#111111" stroke-width="2" stroke-linecap="round" /><text x="986.5" y="836.0" font-family="'Kaiti SC','STKaiti','Xingkai SC','Comic Sans MS',sans-serif" font-size="27" font-weight="500" fill="#111111" text-anchor="middle" dominant-baseline="middle"><tspan x="986.5" dy="0.0">Synthetic Fixture</tspan></text><rect class="rough" x="1189.0" y="713.0" width="341.0" height="144.0" rx="10.0" fill="pink" stroke="pink" stroke-width="3" /><rect class="rough" x="1331.6" y="775.8" width="8.2" height="14.8" rx="0.0" fill="#FFFFFF" stroke="#111111" stroke-width="2" /><rect class="rough" x="1346.4" y="766.0" width="8.2" height="24.6" rx="0.0" fill="#FFFFFF" stroke="#111111" stroke-width="2" /><rect class="rough" x="1361.1" y="752.9" width="8.2" height="37.7" rx="0.0" fill="#FFFFFF" stroke="#111111" stroke-width="2" /><circle cx="1380.0" cy="775.8" r="13.1" fill="#FFF7D7" stroke="#111111" stroke-width="2.5"/><text x="1380.0" y="776.7" font-family="'Kaiti SC','STKaiti','Xingkai SC','Comic Sans MS',sans-serif" font-size="21" font-weight="500" fill="#111111" text-anchor="middle" dominant-baseline="middle"><tspan x="1380.0" dy="0.0">$</tspan></text><text x="1359.5" y="836.0" font-family="'Kaiti SC','STKaiti','Xingkai SC','Comic Sans MS',sans-serif" font-size="31" font-weight="500" fill="#111111" text-anchor="middle" dominant-baseline="middle"><tspan x="1359.5" dy="0.0">低成本运行</tspan></text>
</svg>
